<svg width="118" height="118" viewBox="0 0 118 118" fill="none" xmlns="http://www.w3.org/2000/svg">
<g filter="url(#filter0_d_1534_895)">
<rect x="4" y="5" width="100" height="100" rx="20" fill="white"/>
<rect x="5" y="6" width="98" height="98" rx="19" stroke="#102072" stroke-width="2"/>
<path d="M72.7504 34.1665C75.0419 34.1667 76.9164 36.0419 76.9164 38.3335V63.3335C76.9162 65.6249 75.0418 67.4993 72.7504 67.4995H58.1664L62.3334 73.7495V75.8335H45.6664V73.7495L49.8334 67.4995H35.2504C32.9588 67.4995 31.0836 65.625 31.0834 63.3335V38.3335C31.0834 36.0418 32.9587 34.1665 35.2504 34.1665H72.7504ZM35.2504 38.3335V59.1665H72.7504V38.3335H35.2504Z" fill="#102072"/>
</g>
<defs>
<filter id="filter0_d_1534_895" x="0.9" y="0.9" width="116.2" height="116.2" filterUnits="userSpaceOnUse" color-interpolation-filters="sRGB">
<feFlood flood-opacity="0" result="BackgroundImageFix"/>
<feColorMatrix in="SourceAlpha" type="matrix" values="0 0 0 0 0 0 0 0 0 0 0 0 0 0 0 0 0 0 127 0" result="hardAlpha"/>
<feOffset dx="5" dy="4"/>
<feGaussianBlur stdDeviation="4.05"/>
<feComposite in2="hardAlpha" operator="out"/>
<feColorMatrix type="matrix" values="0 0 0 0 0.0627451 0 0 0 0 0.12549 0 0 0 0 0.447059 0 0 0 0.2 0"/>
<feBlend mode="normal" in2="BackgroundImageFix" result="effect1_dropShadow_1534_895"/>
<feBlend mode="normal" in="SourceGraphic" in2="effect1_dropShadow_1534_895" result="shape"/>
</filter>
</defs>
</svg>
