<svg width="118" height="118" viewBox="0 0 118 118" fill="none" xmlns="http://www.w3.org/2000/svg">
<g filter="url(#filter0_d_1534_896)">
<rect x="4" y="5" width="100" height="100" rx="20" fill="white"/>
<rect x="5" y="6" width="98" height="98" rx="19" stroke="#102072" stroke-width="2"/>
<path d="M65.4584 37.2915C67.8959 37.2915 70.4379 37.6043 72.7504 38.3335C74.3126 38.8543 75.6665 39.4792 76.9164 40.4165V70.8335C76.9162 71.3541 76.396 71.8743 75.8754 71.8745C75.667 71.8745 75.5622 71.8752 75.3539 71.771C72.4372 70.2085 68.8958 69.5835 65.4584 69.5835C61.9167 69.5835 56.8129 70.9377 54.0004 72.7085C50.9795 70.4168 46.6039 69.5835 42.5414 69.5835C39.5206 69.5836 35.4583 70.5204 32.6459 71.8745C32.4376 71.8745 32.3335 71.9789 32.1254 71.979C31.6045 71.979 31.0834 71.4578 31.0834 70.937V40.4165C34.1041 38.1249 38.479 37.2915 42.5414 37.2915C46.6039 37.2915 50.9795 38.1248 54.0004 40.4165C57.0212 38.125 61.396 37.2915 65.4584 37.2915ZM65.4584 41.4585C61.9167 41.4585 56.8129 42.8127 54.0004 44.5835V68.5415C56.8129 66.7707 61.9168 65.4165 65.4584 65.4165C67.9584 65.4165 70.4587 65.7293 72.7504 66.4585V42.4995C70.4587 41.7703 67.9584 41.4585 65.4584 41.4585Z" fill="#102072"/>
</g>
<defs>
<filter id="filter0_d_1534_896" x="0.9" y="0.9" width="116.2" height="116.2" filterUnits="userSpaceOnUse" color-interpolation-filters="sRGB">
<feFlood flood-opacity="0" result="BackgroundImageFix"/>
<feColorMatrix in="SourceAlpha" type="matrix" values="0 0 0 0 0 0 0 0 0 0 0 0 0 0 0 0 0 0 127 0" result="hardAlpha"/>
<feOffset dx="5" dy="4"/>
<feGaussianBlur stdDeviation="4.05"/>
<feComposite in2="hardAlpha" operator="out"/>
<feColorMatrix type="matrix" values="0 0 0 0 0.0627451 0 0 0 0 0.12549 0 0 0 0 0.447059 0 0 0 0.2 0"/>
<feBlend mode="normal" in2="BackgroundImageFix" result="effect1_dropShadow_1534_896"/>
<feBlend mode="normal" in="SourceGraphic" in2="effect1_dropShadow_1534_896" result="shape"/>
</filter>
</defs>
</svg>
